<?xml version="1.0" encoding="utf-8"?>
<!-- Generator: Adobe Illustrator 26.0.3, SVG Export Plug-In . SVG Version: 6.00 Build 0)  -->
<svg version="1.1" id="Layer_1" xmlns="http://www.w3.org/2000/svg" xmlns:xlink="http://www.w3.org/1999/xlink" x="0px" y="0px"
	 viewBox="0 0 24 24" style="enable-background:new 0 0 24 24;" xml:space="preserve">
<style type="text/css">
	.st0{fill-rule:evenodd;clip-rule:evenodd;}
</style>
<g id="Layer_2_00000040567293367141825280000013498287115257310883_">
	<g id="Layer_1-2">
		<g id="Layer_2-2">
			<g id="Layer_1-2-2">
				<path class="st0" d="M21.8,3.4c1.2,0,2.2,1,2.2,2.2l0,0v12.9c0,1.2-1,2.2-2.2,2.2H2.2c-1.2,0-2.2-1-2.2-2.2V5.6
					c0-1.2,1-2.2,2.2-2.2H21.8z M10.3,13.2L2.5,7.1C2.3,6.9,2.2,7,2.2,7.2V18c0,0.2,0.2,0.4,0.4,0.4h18.8c0.2,0,0.4-0.2,0.4-0.4l0,0
					V7.2c0-0.2-0.2-0.3-0.4-0.2l-7.8,6.1C12.7,14,11.3,14,10.3,13.2z M19.5,5.6H4.6c-0.2,0-0.3,0.1-0.1,0.3l7,5.6
					c0.3,0.2,0.7,0.2,1,0l7-5.6c0.2-0.2,0.1-0.3-0.1-0.3L19.5,5.6z"/>
			</g>
		</g>
	</g>
</g>
</svg>
