<svg xmlns="http://www.w3.org/2000/svg" viewBox="0 0 308 221.2"><defs><style>.cls-1{fill:#fff;fill-rule:evenodd;}</style></defs><g id="Layer_2" data-name="Layer 2"><g id="Layer_1-2" data-name="Layer 1"><path class="cls-1" d="M280,0a28,28,0,0,1,28,28V193.19a28,28,0,0,1-28,28H28a28,28,0,0,1-28-28V28A28,28,0,0,1,28,0ZM132.05,126.48,32.41,47.6C30,45.67,28,46.6,28,49.68v138a5.58,5.58,0,0,0,5.62,5.57H274.39a5.58,5.58,0,0,0,5.62-5.57V49.68c0-3.11-2-4-4.42-2.08L176,126.48c-12.11,9.59-31.77,9.6-43.89,0ZM249.61,28H58.39c-3.06,0-3.67,1.54-1.27,3.44L147.44,103a11.06,11.06,0,0,0,13.12,0l90.32-71.51c2.42-1.91,1.84-3.44-1.27-3.44Z"/></g></g></svg>