<svg xmlns="http://www.w3.org/2000/svg" viewBox="0 0 24 17.24"><defs><style>.cls-1{fill:#fff;fill-rule:evenodd;}</style></defs><g id="Layer_2" data-name="Layer 2"><g id="Layer_1-2" data-name="Layer 1"><g id="Layer_2-2" data-name="Layer 2"><g id="Layer_1-2-2" data-name="Layer 1-2"><path class="cls-1" d="M21.82,0A2.19,2.19,0,0,1,24,2.18h0V15.05a2.19,2.19,0,0,1-2.18,2.19H2.18A2.19,2.19,0,0,1,0,15.05V2.18A2.19,2.19,0,0,1,2.18,0ZM10.29,9.86,2.53,3.71c-.19-.15-.35-.08-.35.16V14.62a.44.44,0,0,0,.44.44H21.38a.44.44,0,0,0,.44-.43h0V3.87c0-.24-.16-.31-.35-.16L13.71,9.86a2.91,2.91,0,0,1-3.42,0Zm9.16-7.68H4.55c-.24,0-.29.12-.1.27l7,5.58a.87.87,0,0,0,1,0l7-5.58c.19-.15.14-.26-.1-.26Z"/></g></g></g></g></svg>